<?xml version="1.0" encoding="UTF-8"?>
<!DOCTYPE svg PUBLIC "-//W3C//DTD SVG 1.1//EN" "http://www.w3.org/Graphics/SVG/1.1/DTD/svg11.dtd">
<!-- Creator: CorelDRAW 2021 (64-Bit) -->
<svg xmlns="http://www.w3.org/2000/svg" xml:space="preserve" width="98.5906mm" height="98.5947mm" version="1.1" shape-rendering="geometricPrecision" text-rendering="geometricPrecision" image-rendering="optimizeQuality" fill-rule="evenodd" clip-rule="evenodd"
viewBox="0 0 7999.89 8000.22"
 xmlns:xlink="http://www.w3.org/1999/xlink"
 xmlns:xodm="http://www.corel.com/coreldraw/odm/2003">
 <g id="Layer_x0020_1">
  <metadata id="CorelCorpID_0Corel-Layer"/>
  <g id="_1853205335568">
   <path fill="#057E7F" d="M3766.57 7164.46l57.34 1.7 -11.21 248.33 81.47 6.05 -2.19 53.4 -141.42 -7.41 16.01 -302.06zm483.12 0.45l19.26 302.37 -55.78 3.67 -20.32 -302.25 56.84 -3.79zm-935.17 -66.02l161.98 30.54 -9.78 56.39 -107.14 -19.82 -8.63 52.92 104.41 21.24 -10.18 53.33 -107.16 -17.83 -12.39 76.46 103.78 19.86 -10.11 55.79 -162.93 -31.16 58.15 -297.74zm1320.68 113.01c14.22,-22.18 30.43,-57.81 43.45,-84.53 14.23,-29.21 12.17,-36.76 83.22,-42.36l-74.34 150.38c28.54,36.73 125.33,114.75 142.39,142.79l-67.21 12.63c-9.19,-18.04 -39.78,-41.13 -54.88,-54.73 -10.69,-9.63 -20.64,-17.29 -29.8,-27.47 -13.23,-14.69 -11.85,-17.89 -29.14,-26.31l25.08 129.37c-19.42,2.48 -38.33,10.25 -56.76,7.01l-59.84 -293.61 56.85 -10.55 20.98 97.37zm-1656.97 -132.41c-50.73,48.2 -76.57,53.87 -100.32,120.04 -7.94,22.12 -19.39,62.03 -30.6,80.22l-52.55 -17.61c9.62,-38.67 45.9,-104.85 41.37,-142.79 -6.95,-58.15 -17.52,-113.87 -22.55,-171.84 19.52,4.32 43.75,12.61 57.83,21.18l15.9 117.46c19.89,-11.68 58.81,-59.46 92.58,-80.96l52.83 18.68 -54.5 55.62zm2546.05 -291.57l22.65 46.49c-11.79,13.78 -57.85,31.69 -80.77,45.13 -0.88,0.52 -2.13,1.28 -2.93,1.77l-9.67 6.47 25.42 46.19 95.53 -47.2 23 48.92 -93.62 49.28 36.41 68.49 96.19 -46.54 22.64 47.82c-14.65,15.09 -122.01,66.95 -146.5,75.09l-135.67 -269 147.32 -72.91zm-3018.88 12.93l51 24 -139.99 269.83c-19.07,-6.69 -36.68,-13.8 -50.54,-26.74l139.52 -267.1zm-624.51 -39.31c7.72,-19.62 164.69,-236.51 178,-247.66 61.89,38.83 136.62,87.7 136.62,161.9 0,94.71 -97.1,226.08 -230.85,142.59 -26.04,-16.25 -59.72,-47.35 -83.77,-56.82zm4112.68 -3.79c-52.82,-40.18 -158.41,-3.15 -195.61,-66.6 -21.95,-37.43 -3.34,-78.05 19.71,-99 30.93,-28.1 60.87,-25.18 107.2,-17.66l-11.8 54.87c-33.36,-5.87 -71.49,-7.88 -67.28,31.73 36.55,30.1 116.48,9.88 162.55,35.48 16.77,9.32 37.74,33.71 42.17,59.36 6.68,38.56 -9.7,51.9 -20.8,74.37 73.39,-0.62 48.27,81.48 -27.3,93.63l-6.39 -23.4c17.98,-14.52 37.9,-10.61 34.23,-41.1 -20.17,-3.31 -11.89,4.12 -27.12,3.13 -19.04,-1.23 5.74,-6.68 -19.82,-3.52 -20.49,2.53 -45.29,16.54 -90.87,-10.59l20.04 -51.03c41.43,11.55 86.34,20.58 81.07,-39.65zm-4486.09 -331.39c8.01,-23 33.39,-40.66 53.81,-58.7 18.86,-16.64 35.53,-34.56 53.2,-52.55 20.04,-20.4 87.99,-97.28 105.1,-106.44 18.26,15.08 41.62,38.1 59,55.57 10.6,10.66 17.98,18.05 28.62,28.68 15.98,15.95 20.85,16.29 29.22,31.43l-37.81 37.41c-25.29,-17.77 -53.4,-56.13 -79.02,-72.58 -10.21,10.38 -25.12,24.11 -36.42,32.35 11.02,20.07 56.38,59.38 73.9,81.04 -11.7,18.65 -21.06,21.67 -31.34,37.01 -38.12,-11.43 -52.38,-54.29 -85.91,-72.18l-51.85 57.48c22.77,19.43 52.89,54.42 74.63,69.63 -5.61,10.69 -31.68,37.68 -39.69,43.52 -30.83,-29.37 -85.16,-87.23 -115.45,-111.66zm4830.44 -59.56c14.72,49.15 67.57,64.74 95.73,115.97 -9.14,11.52 -27.76,28.3 -39.95,36.76 -15.99,-18.24 -37.59,-33.84 -54.42,-52.52 -17.8,-19.76 -26.1,-36.71 -58.41,-47.3 -33.44,-10.95 -141.4,-42.56 -159.23,-56.79 12.35,-11.17 28.72,-24.17 38.34,-41.85l118.95 37.5 -33.48 -114.61 32.95 -32.86c10.75,-9.74 -0.06,-2.13 11.58,-8.55 8.42,46.44 33.52,116.12 47.94,164.27zm229.05 -495.97c50.49,10.67 106.4,29.44 157.53,43.36 42.34,11.54 119.27,29.41 153.34,44.76 -9.64,15.05 -24.41,31.73 -33.37,46.98l-67.41 -17.84c-14.21,30.26 -52.23,65.39 -69.77,97.21 7.44,21.54 22.53,36.77 32,57.29 -9.58,17.23 -22.21,34.97 -35.41,47.59 -32.72,-54.36 -68.87,-107.55 -102.08,-162 -74.06,-121.46 -85.21,-100.21 -34.83,-157.35zm-5425.22 107.25c19.04,-9.11 42.1,-29.66 61.06,-43.77 22.62,-16.85 38.79,-28.93 60.69,-45.09l121.19 -87.41c12.84,13.15 24.88,29.54 33.53,44.69 -24.86,20.35 -69.9,48.58 -89.62,70.76l60.51 77.09c18.93,-12.74 78.23,-59.5 92.53,-63.29 7.95,8.86 10.56,12.33 17.68,21.88l13.32 22.19 -120.46 91.21c-26.14,18.98 -100.76,80.39 -122.35,88.89 -9.99,-17.25 -24.91,-28.74 -32.29,-49.66 16.34,-6.98 39.57,-26.1 54.96,-37.62l48.7 -39.95 -57.28 -78.42c-14.91,6.66 -41.14,28.64 -56.57,40.04 -14.63,10.8 -37.46,29.77 -52.72,36.95 -12.77,-15.83 -25.41,-29.62 -32.88,-48.5zm-377.03 -2819.52c28.7,-9.06 50.24,14.73 44.56,46.64 -4.69,26.4 -13.49,55.98 -19.28,82.23 -12.23,55.5 -23.6,113.22 -32.81,170.07 -124.08,766.12 12.9,1515.49 391.45,2180.96 21.61,37.99 79.94,109.93 27.36,128.68 -35.34,12.6 -49.07,-20.73 -61.59,-41.73 -205.12,-344.21 -344.44,-705.47 -419.49,-1109.67 -83.6,-450.21 -73.52,-940.04 33.16,-1390.08 8.4,-35.46 6.26,-57.5 36.63,-67.1zm6369.29 2061.95c-32.17,82.98 -229.58,523.73 -279.18,545.35 -31.88,13.88 -59.23,-13.7 -51.66,-43.43l111.15 -197.03c360.11,-685.52 459.16,-1475.37 295.98,-2238.52 -5.85,-27.39 -11.99,-54.34 -19.12,-82.06 -9.04,-35.2 -18.61,-57.68 15.24,-72.7 56.55,-25.08 64.07,84.9 73.26,125.23 98.03,430.14 104.95,886.38 32.94,1317.98 -37.82,226.68 -101.08,445.16 -178.61,645.17zm-364.57 -2907.18c-8.88,27.86 -31.86,54.07 -9.53,88.72 16.44,25.49 52.74,31.2 69.56,-2.29 21.98,-43.78 17.28,-128.15 45.42,-179.24 28.76,-52.21 89.47,-74.72 151.7,-32.15 17.85,12.21 36.97,39.87 43.52,70.74 8.05,38.01 -3.29,62.6 -9.58,96.13 -24.79,-4.42 -54.05,-12.32 -72.19,-24.24 6.99,-36.2 21.96,-86.48 -29.45,-89.19 -25.32,14.96 -24.62,38.27 -31.03,71.28 -5.33,27.41 -8.7,54.29 -15.31,81.8 -51.66,215 -329.66,60.44 -207.87,-115.23l64.78 33.67zm-5736.57 -225.41l342.91 203.42c-3.78,11.58 -28.06,55.44 -39.55,65.45 -47.61,-28.53 -99.25,-59.31 -148.79,-86.2l-65.47 112.16c18.92,14.57 49.16,30.81 73.37,44.96 23.18,13.55 52.47,32.6 76.19,43.4l-41.63 67.6 -341.67 -203.81 38.32 -65.51 131.78 74.52c13.72,-26.95 57.66,-91.04 62.68,-113.49l-126.05 -76.26 37.93 -66.24zm1909.84 252.69c16.5,-5.33 7.76,-1.41 20.07,-13.75l35.74 -43.4c27.23,-39.42 -19.47,-162.28 29.23,-283.45 24.03,-59.79 52.44,-85.57 90.94,-129.45 14.33,-16.33 40.41,-38.58 58.44,-51.68 24.03,-17.46 45.44,-30.4 82.27,-25.52 26.07,33.28 15.73,42.62 10.31,87.1 -4.37,35.91 -5.75,64.52 -6.96,102.43 -2.57,80.58 -34.61,160.12 -34.75,179.52 21.49,13.44 79.83,16.39 114.52,35.22 206.4,112.08 101.83,468.44 -110.52,392.27 -77.95,-27.95 -122.42,-170.13 -84.72,-188.71 42.18,-20.78 47.33,142.23 149.18,127.79 98.56,-13.97 137.63,-194.74 27.18,-259.77 -104.49,-61.52 -218.9,18.64 -277.94,92.38 -80.06,100 -124.97,285.45 -80.9,442.52 36.02,128.35 106.28,211.44 171.53,317.65 9.23,15.01 15.47,31.73 28.58,37.07 8.28,-13.75 23.59,-118.65 29.78,-146.07 40.57,-179.86 151.94,-381.23 286.98,-501.66 68.28,-60.9 169.2,-152.17 246.32,-189.96 46.81,-22.95 90.03,13.5 128.94,31.72 43.21,20.22 74.94,41.53 108.73,67.49 165.92,127.44 296.98,293.78 384.13,488.42 12.67,28.28 36.7,105.4 48.96,122.01 17.55,-16.67 50.11,-230.35 58.8,-275.19 34.3,-177.3 99.85,-320.07 218.59,-446.72 77.32,-82.48 178.13,-166.9 300.65,-197.18 73.4,-18.14 65.73,-11.61 111.19,-56.47 95.56,-94.3 313.91,-243.01 455.15,-145.9 16.86,11.6 29.26,23.99 34.52,48.99 18.11,86.23 -91.58,149.16 -114.5,105.3 -9.92,-39.2 44.89,-37.28 52.3,-80.72 -32.42,-55.83 -141.62,-17.53 -185.97,5.5 -44.24,22.97 -75.67,49.85 -113.27,76.07 -13.83,9.65 -26.34,12.9 -27.88,33.77 46.91,25.35 226.59,32.55 342.76,184.3 100.34,131.06 58.2,287.21 -41.73,372.43 -108.15,92.24 -306.85,73.33 -340.45,-69.6 -18.27,-77.69 26.74,-155.32 73.41,-179.79 53.54,-28.08 200.28,-22.69 189.93,49.65 -33.24,18.09 -74.68,-23.83 -142.17,-1.98 -26.86,8.69 -38.02,17.5 -46.38,41.85 -51.19,149.16 115.45,186.97 217.33,102.6 21.95,-18.18 53.22,-70.82 63.77,-112.58 13.74,-54.37 -7.64,-97.66 -30.94,-132.06 -41.54,-61.36 -115.61,-106.78 -206.15,-137.6 -43.93,-14.95 -100.06,-26.09 -150.84,-24.44 -46.8,1.53 -71.9,42.4 -96.23,74.46l-144.26 203.85c-44.43,67.41 -88,144.76 -124.59,223.74 -15.67,33.83 -100.02,214.78 -99.96,240.2 18.23,-0.03 33.04,-17.39 48.94,-26.99 13.78,-8.33 33.64,-18.39 50.11,-24.81 36.47,-14.19 93.71,-25.87 124.87,-5.49l-0.57 25.65c-15.77,11.98 -67.63,32.89 -93.54,45.72 -58.03,28.76 -199.36,146.84 -219.58,190.79 75.15,-12.89 159.06,-122.83 464.05,-82.12 164.32,21.92 291.48,76.62 446.37,108.97 246.15,51.41 240.4,58.49 224.18,182.48 -31.81,243.21 -208.18,448.17 -210.89,483.05 79.46,26.96 123.2,41.1 187.03,86.12 29.29,20.66 51.16,36.73 76.63,59.92 20.48,18.65 49.26,46.39 67.23,69.45 38.36,49.21 89.65,95.33 131.18,141.96 48.24,54.15 78.86,74.55 163.53,109.73 116.74,48.49 204.21,61.26 319.11,-5.31 24.33,-14.1 68.5,-29.55 68.09,-65.94 -0.41,-37.09 -19.43,-76.88 -35.64,-99.72 -45.51,-64.16 -178.98,-45.43 -168.31,18.37 5.33,31.93 49.98,46.67 55.62,80.65 -31.09,69.08 -203.48,12.63 -131.09,-131.5 42.29,-84.19 170.81,-100.74 248.23,-55.73 150.66,87.61 111.87,379.49 26.66,528.91 -138.15,242.23 -379.19,350.67 -656.61,401 -184.83,33.54 -268.79,4.66 -318.38,11.94 -3.77,20.86 22.94,83.51 29.75,108.87 19.94,74.19 51.74,314.98 15.36,363.73 -23.91,32.04 -150.51,66.63 -199.44,78.08 -78.67,18.4 -161.91,27.69 -247.76,26.57 -212.41,-2.76 -452.11,-100.14 -616.79,-212.8 -34.89,-23.86 -131.89,-113.02 -155.4,-120.41 4.21,85.44 127.35,224.81 140.37,419.56 10.84,162.19 -21.58,333.54 -108.73,432.23 -204.24,231.26 -540.73,133.01 -604.76,-104.19 -15.06,-55.8 -1.34,-83.2 -7.25,-129.32 -31.73,-0.36 -202.53,89.57 -249.42,107.94 -99.72,39.08 -191.63,45.08 -306,45.53 -34.6,0.14 -52.28,-1.44 -71.19,-20.38 -42.13,-42.19 -69.13,-119 -88.53,-175.82 -52.42,-153.51 -27.92,-193.21 -50.75,-301.54 -22.34,3.4 -30.19,15.02 -45.69,26.57l-122.02 80.78c-319.2,179.24 -737.35,269.43 -1094.73,154.55 -225.97,-72.64 -342.15,-274.38 -291.23,-500.51 32.25,-143.19 119.59,-227.26 237.53,-304.52 133.61,-87.54 422.56,-195.75 582.17,-228.5 86.08,-17.66 415.77,-50.54 461.46,-82.42 -11.23,-16.11 -75.06,-38.1 -95.89,-46.91 -32.73,-13.84 -61.25,-28.72 -91.16,-45.46 -87.72,-49.12 -169.66,-99.65 -244.41,-165.3 -24.13,-21.19 -50.38,-41.39 -71.97,-64.63 -19.78,-21.3 -44.87,-47.95 -63.08,-73.43 -11.68,-16.33 -42.69,-72.4 -53.81,-82.37 -74.27,10.02 -68.27,40.87 -165.6,15.3 -146.4,-38.47 -241.37,-175.5 -258.93,-340.16 -23.43,-219.81 63.09,-441.85 243.15,-552.13 91.57,-56.07 176.55,-91.4 310.84,-91.72 212.26,-0.5 445.39,82.33 627.22,176.23 46.05,23.78 85.1,44.66 127.82,70.49 24.63,14.9 104.44,69.69 126.75,73.08 -10.74,-20.17 -171.02,-176.4 -198.43,-199.77 -10.68,-9.1 -15.83,-16.14 -26.72,-26.02 -169.12,-153.56 -363.32,-273.95 -586.73,-343.01 -57.73,-17.85 -139.05,-23.76 -134.97,-57.2 66.33,-38.02 285.13,49.88 339.28,77.44 204.83,104.24 277.6,175.71 440.75,304.01l111.66 99.88c26.72,24.47 139.23,148.12 159.26,155.44 2.75,-39.04 -58.54,-166.91 -76.18,-203.49 -61.42,-127.36 -145.97,-220.63 -210.15,-344.97 -35.18,-68.18 -44.29,-128.19 -78.32,-133 -18.43,-2.61 -46.79,-1.35 -66.05,-1.12 -227.15,2.69 -411.43,-135.65 -485.54,-346.3 -12.43,-35.35 -21.05,-74.31 -27.1,-112.95 -16.42,-104.93 -15.96,-150.09 74.79,-62.56 57.44,55.4 117.28,97.05 189.69,140.81 46.11,27.85 94.04,52.24 141.68,78.78l135.94 81.73c-12.25,-31.3 -39.78,-76.25 -57.49,-107.41 -20.98,-36.92 -39.39,-72.03 -53.66,-113.82 -28.18,-82.55 -33.95,-210.25 2.91,-288.08 15.79,-33.34 45.72,-78.26 73.43,-94.17 54.36,-31.2 62.44,34.91 74.01,73.32 13.75,45.61 32.04,75.6 49.29,118.07 18.09,44.59 22.01,83.3 34.4,127.6zm3317.56 -503.13c20.37,-26.42 293.65,-262.27 298.52,-264.4 21.92,31.51 35.19,35.21 47,58.18 -8.5,9.22 -15.48,13.07 -25.7,21.41l-70.66 66.68c48.19,1.05 97.3,-6.05 145.65,-7.73 33.53,-1.18 36.04,10.05 49.46,27.67 10.53,13.83 24.97,24.72 32.86,39.66l-220.37 13.27c-8.54,13.9 -60.87,230 -65.17,258.54 -15.81,-9.85 -41.72,-42.8 -61.78,-62.5l49.11 -207.46 -129.51 112.24 -49.42 -55.56zm-4856.79 -219.75c15.08,-16.08 33.2,-43.27 57.35,-51.83l388.4 157.01 -50.41 59.36 -83.63 -32.04c-24.61,26.45 -97.98,95.14 -110.4,118.28l35.08 74.72c-6.05,13.03 -15.9,21.1 -25.14,31.73 -5.31,6.13 -6.46,8.43 -12.15,14.32l-16.5 12.17 -182.6 -383.73zm4384.33 -185.07c15.46,-32.32 222.19,-288.88 235.5,-319.23 16.64,6.71 34.86,22.91 48.62,33.41 16.49,12.59 28.83,20.07 42.79,32.21 71.67,62.46 80.39,134.12 8.96,193.42 -39.33,32.65 -56.43,17.56 -100.88,17.79l-31.11 193.87c-16.07,-8.46 -52.82,-35.67 -66.45,-48.19 2.49,-31.9 33.7,-175.87 24.55,-190.07 -16.08,13.94 -39.13,48.97 -51.5,65.47 -13.25,17.66 -35.05,51.82 -49.85,64.42 -16.13,-6.51 -47.93,-32.26 -60.63,-43.11zm-3882.91 -264.96c10.85,-12.29 84.62,-61.12 104.19,-71.86 133.93,-73.5 235.85,88.96 136.06,180.24 -14.14,12.94 -32.16,23.77 -44.8,37.03l92.12 136.6c-9.53,12.41 -50.57,38.99 -64.18,44.63l-223.39 -326.64zm3424.65 -406.51c125.23,-22.27 220.47,66.29 238.24,171.26 20.79,122.79 -66.93,221.94 -167.13,241 -64.69,12.3 -126.1,-9.06 -165.99,-39.74 -140.08,-107.73 -91.53,-339.35 94.87,-372.53zm-2832.54 50.37c17.62,-12 92.53,-43.19 119.33,-51.44 134.83,-41.46 176.1,98.96 142.16,159.85 -25.62,45.93 -53.35,44.14 -98.99,72.72l64.86 154.4 -69.67 28.87 -157.68 -364.4zm1965.6 -59.21c14.69,-16.63 98.41,-197.96 113.14,-231.35 18.16,2.64 46.93,3.86 59.58,13.49 11,15.32 27.21,215.47 29.97,252.56 9.85,-11.4 91.67,-209.55 97.66,-233.93l75.62 15.68 -153.87 375.87 -74.11 -12.01 -29.64 -262.07 -111.81 237.45 -73.11 -14.89 -20.47 -406.26c14.39,1.78 28.04,4.28 41.21,6.47l33.07 8.59 12.76 250.4zm-1127 -176.31c12.13,-42.88 -5.55,-37.8 88.77,-54.76 -2.08,36.77 -42.23,159.27 -54.55,203.62 -22.51,81.06 12.42,110.89 22.96,210.91l-73.65 14.22c-7.17,-13.58 -20.98,-91.42 -25.59,-113.9 -11.98,-58.31 -15.88,-60.13 -44.99,-95.81l-124.02 -154.28c18.95,-10.75 55.58,-15.73 80.62,-18.22l96.35 119.53 34.1 -111.31zm-3335.62 3429.42c0,789.56 224.7,1497.79 615.3,2126.62 55.45,89.27 140.31,211.46 204.42,293.44 37.24,47.63 72.11,93.56 109.16,137.74 11.32,13.5 18.93,22.31 30.88,35.09 38.79,41.45 68.66,81.21 116.79,129.94l89.49 95.64c225.75,225.75 429.15,381.36 692.61,554.54 349.22,229.54 815.1,420.28 1224.77,515.54 608.65,141.53 1224.44,141.57 1833.1,0.36 467.76,-108.52 981.35,-332.52 1368.02,-610.63 48.78,-35.09 95.63,-69.82 142.82,-103.98 112.87,-81.71 228.61,-189.72 332.9,-284.06l126.14 -124.87c20.87,-23.29 34.63,-40.15 59.49,-63.94 11.6,-11.09 17.79,-21.23 28.47,-33.35l196.79 -234.88c36.69,-46.49 70.5,-94.63 104.25,-142.7 286.17,-407.64 496.13,-866.12 614.47,-1359.58 85.91,-358.23 110.01,-626.14 110.01,-997.01 0,-566.36 -155.7,-1162.69 -364.76,-1610.23 -226.83,-485.61 -510.53,-862.12 -811.2,-1163.08l-191.37 -178.67c-11.62,-10.03 -19.92,-16.79 -33.29,-28.43l-101.27 -83.83c-242.91,-193.07 -547.1,-388.91 -840.38,-516.85 -571.71,-249.42 -1060.74,-358.28 -1703.94,-358.28 -583.91,0 -1155.02,151.15 -1623.46,363.96 -339.68,154.32 -735.4,411.31 -1011.88,666.98l-156.71 151.63c-603.31,603.29 -1161.63,1574.22 -1161.63,2822.9z"/>
   <path fill="#DEDB24" d="M3975.75 5690.07c7.15,-24.99 31.19,-42.65 48.62,-58.39 15.3,-13.82 31.41,-37.07 45.5,-55.92 29.2,-39.04 52.85,-81.34 74.44,-132.66 77.43,-184.07 49.59,-229.84 78.2,-337.62 37.69,13.71 17.7,41.63 21.82,80.86 15.54,147.97 166.6,274.24 171.93,524.41 0.97,44.93 -9.67,140.19 -19.9,182.68 -66.42,275.51 -356.22,300.31 -474.1,174.89 -9.96,-10.6 -14.32,-18.95 -23.26,-29.72 -8.65,-10.43 -13.45,-15.86 -21.17,-27.2 -13.01,-19.1 -23.99,-40.99 -30.12,-66.88 -34.86,-147.48 117.95,-206.3 191.34,-147.4 81.02,65.03 78.48,199.89 130.52,165.19 41.03,-27.37 -8.58,-195.96 -118.94,-251.58 -25.8,-13.01 -51.62,-12.01 -74.88,-20.66zm-849.98 -735.23c-3.27,24.47 -40.76,89.02 -52.99,121.77 -32.76,87.67 -50.32,188.96 -60.23,282.98 -8.64,82.02 -6.23,69.15 -59.46,108.52 -122.73,90.75 -281.05,172.17 -452.43,230.53 -180.5,61.48 -395.49,83.77 -597.7,53.36 -211.98,-31.87 -344.77,-96.01 -405.42,-273.02 -36.37,-106.12 -28.87,-182.16 16.5,-277.76 92.22,-194.34 428.96,-325.58 633.52,-388.77 179.02,-55.31 579.47,-89.12 650.89,-120.22 69.97,-30.47 75.44,-1.94 199.32,18.01 53.77,8.65 102.41,11.99 157.49,15.59 68.84,4.49 130,-7.68 155.02,-5.95 -4.49,19.67 -24.54,31.61 -38.02,45.11 -14.96,15.01 -21.66,26.78 -47.92,35.81 -37.17,12.77 -78.11,56.62 -108.59,47.32 -48.19,-14.7 -199.8,-90.46 -240.62,-74.87 -6.48,39.78 56.4,54.87 91.01,69.81 27.56,11.9 94.02,36.09 108.42,54.2 -6.65,16.16 -28.71,28.5 -45.96,38.4 -23.41,13.44 -39.55,1.79 -63.45,-7.8 -40.88,-16.38 -86.04,-27.95 -128.34,-43.48 -64.69,-23.73 -205.32,-100.33 -246.95,-92.1 -14.61,43.13 34.53,54.6 67.54,68.81 31.29,13.47 65.1,26.47 97.29,39.31l147.4 59.7c16.56,7.16 34.87,11.06 43,23.6 -8.85,15.96 -45.62,37.92 -66.73,38.75 -27.1,1.08 -200.01,-61.72 -230.19,-72.84 -49.76,-18.34 -97.26,-38.35 -144.39,-58.31 -23.27,-9.85 -47.02,-20.06 -70.63,-30.72 -20.12,-9.09 -62.2,-31.8 -78.26,-11.61 -25.29,31.81 188.56,104.26 213.19,114.67 38.6,16.32 219.55,82.42 234.38,99.37 -9.32,12.67 -57.55,40.32 -79.06,44.07 -23.38,4.07 -241.72,-84.17 -269.04,-95.75 -56.47,-23.95 -108.27,-52.31 -165.3,-77.3 -40.48,-17.73 -131.95,-74.97 -174,-61.6 -5.71,29.95 18.56,39.95 43.5,51.23 68.38,30.92 139.56,60.86 204.91,94.87l275.4 123.8c-8.9,8.52 -71.09,39 -87.93,42.82 -35.63,8.07 -66.52,-16.05 -98.69,-26.33 -67.85,-21.7 -130.06,-37.4 -194.77,-60.88 -63.61,-23.09 -123.22,-47.49 -186.34,-73.6 -30.53,-12.63 -61.13,-23.69 -90.65,-37.28 -24.34,-11.21 -57.97,-33.19 -86.12,-22.01 -8.97,3.56 -3.13,0.95 -7.93,5.95 -12.89,32.02 90.96,65.25 121.08,77.28 99.05,39.57 195.67,81.64 296.01,118.18 26.18,9.53 135.82,41.31 146.14,55.43 -22.37,15.86 -60.31,25.24 -90.71,35.41 -49.48,16.56 -47.36,12.55 -97.82,-0.08 -138.58,-34.7 -247.45,-71.39 -379.49,-122.73 -18.76,-7.3 -210.54,-101.69 -186.47,-39 1.79,4.67 6.59,8.53 10.86,11.74 57.35,43.09 291.37,125.26 362.76,148.64 27.42,8.98 123.84,30.36 139.18,45.09 -11.2,18.52 -57.56,25.33 -77.79,31.71 -18.9,5.96 -63.67,24.1 -82.26,19.04 -12.3,-3.35 -25.37,-18.16 -75.17,-30.57 -112.97,-28.16 -224.55,-54.75 -333.67,-93.91 -22.35,-8.01 -59.05,-29.55 -79.28,-20.18 -33.96,49.79 126.12,88.66 170.93,104.78 63.72,22.91 127.42,45.71 192.96,62.66l26.62 10.21c-4.54,4.57 -0.82,1.89 -8.16,6.36 -3.38,2.04 -5.56,2.94 -9.22,4.42 -62.68,25.4 -131.5,37.55 -196.74,54.51 -26.93,6.99 -58.28,6.73 -53.53,33.3 59.32,20.68 230.52,-45.11 302.09,-50.92 -2.57,22.35 -33.49,52.88 -47.36,68.75l-101.7 123.14c-15.98,18.65 -44.94,38.26 -40.41,68.09 30.32,6.43 49.02,-20.88 63.67,-36.07 64.65,-67.06 129.71,-126.56 185.4,-202.32 15.55,-21.15 21.71,-44.16 42.92,-54.13 20.63,-9.71 131.56,-42.53 152.5,-41.56 -12.73,49.64 -134.39,195.33 -183.12,244.55 -17.45,17.63 -59.34,53.26 -49.06,79.63 39.05,3.83 139.44,-118.71 172.44,-154.53 58.64,-63.66 89.78,-129.26 136.64,-189.35 17.6,-22.56 124.15,-59.36 156.39,-61.8 -4.78,62.28 -162.97,270.19 -210.7,333.4 -12.93,17.13 -83.58,80.53 -69.1,102.28 18.14,27.26 67.86,-34.25 78.86,-48.3 92.23,-117.76 198.97,-231.04 266.57,-368 38.96,-78.93 12.57,-53.09 116.79,-94.83 21.81,-8.74 78.65,-36.35 98.21,-36.08 -1.4,31.14 -96.79,194.25 -115.9,229.93 -21.68,40.48 -42.7,73.54 -65.32,110.92 -14.32,23.66 -63.53,85.56 -44.64,114.65 35.88,8.09 90.95,-93.38 110.13,-124.04 60,-96.02 121.86,-200.49 173.8,-302.3 10.23,-20.06 28.39,-66.93 39.44,-79.28 8.76,-9.79 57.47,-37.29 76.25,-40.77 -3.25,50 -141.7,282.84 -178.8,347.96 -12.16,21.36 -63.06,90.43 -47.04,116.93 21.96,26.65 57.94,-28.37 68.22,-42.75 18.1,-25.3 32.63,-51.7 49.29,-78.51 59.37,-95.62 134.83,-227.14 179.76,-331.49 11.77,-27.35 25.21,-65.21 45.3,-82.4 12.07,-10.33 63.75,-43.67 81.55,-49.25zm2670.12 -195.86c23.09,-16.88 126.98,-19.26 219.56,-110.64 51.23,-50.57 39.84,-94.65 62.93,-100.61 32.56,-8.4 103.41,32.39 114.7,48.21 -3.79,46.2 -113.02,111.43 -158.08,138.04 -65.14,38.47 -203.3,54.41 -239.11,25zm109.2 -325.84c11.19,4.4 82.82,58.25 68.44,107.11 -18.88,64.18 -141.76,126.18 -239.65,126.18 -34.23,0 -110.86,-1.76 -126.94,-26.93 39.93,-19.37 64,-17.41 107.34,-45.52 51.4,-33.35 51.66,-53.91 81.3,-69.05 29.95,9.71 47.22,61.33 87.07,18.72 0.96,-33.91 -20.89,-37.24 -22.73,-71.05 -1.87,-34.53 10.5,-53.09 45.17,-39.46zm-2164.58 107.17c-0.06,36.18 -48.55,94.15 -44.52,152.96 2.73,39.94 38.39,30.59 56.59,5.7 20.5,-28.04 151.61,-304.5 168.86,-310.65 4.71,5.27 6.86,-8.08 6.86,18.13l-6.07 185.15c-5.65,141.7 -57.78,427.31 -57.78,475.83 0,58.64 34.23,24.03 47.93,-1.73 36.94,-69.46 52.22,-119.6 65.3,-198.73 2.6,-15.73 3.02,-30.63 11.21,-43.22 12.31,80.21 18.86,221.54 12.75,305.31 -16.16,221.7 -129.24,490.5 -299.13,638.91 -115.58,100.95 -293.79,155.78 -454.62,174.38 -75.67,8.75 -72.29,13.36 -99.79,-47.4 -15.81,-34.95 -31.75,-70.07 -46.26,-107.82 -76.4,-198.76 -58.88,-391.56 -6.86,-595.89 43.59,-171.19 154.61,-343.35 284.62,-446.71 9.53,-7.59 12.07,-9 23.1,-20.89 12.66,-13.62 26.42,-28.72 43.37,-40.47 23.24,-16.11 81.38,-54.32 110.74,-61.56 -9.46,32.81 -176.18,194.24 -153.14,260.25 24.38,3.93 24.64,-3.55 54.85,-31.93l140.15 -159.43c38.58,-44.19 101.91,-114.86 141.85,-150.19zm302.2 964.28c-45.44,76.81 -145.86,184.56 -215.69,226.28 0.67,-18.71 28.44,-43.5 39.65,-58.62 15.21,-20.51 26.92,-39.48 39.69,-61.64 25.74,-44.67 46.59,-86.33 66.72,-135.95 104.6,-257.77 103.11,-420.9 67.32,-697.03 -5.84,-45.06 -51.53,-333.36 -43.78,-352.41 11.42,25.05 19.05,57.21 29.68,84.84 17.65,45.86 56.09,118.52 65.64,154.85 72.55,275.7 100.99,585.68 -49.23,839.67zm134.1 -846.67c17.02,6.97 82.68,68.33 98.67,83.28 13.79,12.91 212.29,174.68 212.62,114.97 0.11,-18.43 -72.13,-74.77 -89.83,-87.86l-95.92 -84.8c-56.18,-55.36 -121.32,-129.98 -161.77,-199.53 -11.25,-19.34 -56.66,-94.54 -57.16,-115.25 36,-5.2 357.99,158.59 402.83,183.7 63.15,35.36 125.2,74.46 181.35,113.95 29.22,20.56 55.81,38.37 85.4,59.88l63.94 46.89c26.55,11.95 26.83,-1.67 26.9,-1.76 9.57,-19.21 -28.14,-50.56 -39.09,-61.51 -17.23,-17.22 -33.45,-34.51 -53.59,-52.09 -79.88,-69.74 -153.29,-121.82 -244.72,-178.31 -24.07,-14.87 -120.85,-63.27 -129.7,-81.29 273.18,10.18 593.35,181.18 747.6,309.32 94.92,78.85 178.65,160.68 251.4,277.54 56.51,90.75 142.19,249.55 148.69,381.96 2.86,58.37 -15.22,55.62 -61.74,72.57 -98.66,35.92 -227.55,60.64 -332.34,62.93 -223.12,4.86 -491.76,-126.96 -669.64,-254.75 -28.5,-20.46 -49.16,-39.24 -74.13,-57.98 -37.69,-28.3 -104.78,-105.9 -133.01,-131.4 -28.67,-25.91 -34.57,-48.06 -37.48,-96.72 -1.69,-28.41 -16.15,-91.5 -6.82,-114.53 17.45,2.18 26.13,22.71 39.65,35.23 14.82,13.72 22.48,24.44 35.89,39.01 31.91,34.69 221.5,214.81 258.03,175.57 18.84,-22.86 -22.14,-45.35 -38.06,-56.19 -55.19,-37.59 -121.28,-90.86 -162.67,-141.36 -39.05,-47.64 -153.46,-180.36 -165.29,-241.48zm462.3 -319.25c51.66,-10.49 159.87,30.16 206.19,48.67 187.84,75.06 272.79,157.74 399.34,296.76 36,39.56 131.98,162.04 146.34,204 -15.85,-8 -12,-9.59 -23,-23.38 -87.25,-109.35 -211.52,-222.4 -326.48,-303.45 -198.96,-140.27 -441.24,-180.53 -469.26,-204.69 11.5,-9.76 50.87,-14.67 66.87,-17.92zm905.31 213.19c-43.74,0 -179.88,-27.01 -206.55,-43.81 10.31,-16.42 42.95,-19.46 64.07,-28.13 93.24,-38.32 106.63,-89.96 142.48,-125.5 13.79,4.5 24.13,17.7 33.45,27.41 76.01,79.25 158.46,61.08 133.65,16.51 -4.22,-7.58 -22.76,-19.12 -31.74,-25.84 -23.54,-17.65 -43.97,-29.57 -62.24,-52.35 -35.38,-44.13 -75.26,-156.92 28.57,-81.43 53.16,38.66 98.81,76.29 98.81,150.11 0,90.33 -103.57,163.02 -200.5,163.02zm-644.82 -277.6c7.81,-16.37 27.86,-19.49 51.29,-29.5 112.88,-48.26 240.51,-119.98 326.7,-197.74 15.5,-13.98 27.82,-21.81 40.33,-34.56 16.65,-16.96 99.55,-109.13 112.75,-111.01 43.89,-6.26 181.56,70.46 208.48,88.7 65.62,44.47 104.24,97.21 153.98,150.07l72.96 76.67c111.28,124.62 344.98,247.78 534.33,181.9 57.34,-19.95 92.04,-59.92 94.71,-32.3 1.49,15.53 -26,99.91 -32.45,116.51 -85.81,220.76 -283.63,333.52 -501,398.1 -136.72,40.62 -254.91,60.45 -398.28,51.94 -56.99,-3.38 -76.91,-11.68 -97.89,-51.23 -95.48,-180.1 -244.2,-301.31 -262.27,-340.36 30.07,11.9 151.18,93.46 186.93,116.2 220.36,140.18 453.92,321.04 747.27,125.95 46.7,-31.05 42.1,-28.89 81.26,-64.1 20.51,-18.43 53.17,-48.37 63.79,-86.23 43.95,-156.78 -152.49,-141.96 -202.75,-154.45 -22.87,-5.69 -22.77,-16.24 -33.93,-36.1 -18.26,-32.48 -41.46,-57.77 -75.07,-74.76 -43.83,-22.17 -75.57,-15.3 -126.37,-19.9 -12.03,-16.69 -14.67,-36.44 -24.86,-58.11 -67.5,-143.51 -238.22,-144.11 -252.53,-161.68 -18.61,-22.86 -15.04,-66.23 -71.37,-91.46 -101.36,-45.42 -187.12,4.95 -227.74,66.54 -54.55,82.68 26.32,244.37 81.08,178.68 8.41,-45.24 -48.6,-91.29 -24.54,-144.04 37.11,-81.42 196.69,-77.4 161.16,95.33 -9.17,44.58 -34.65,93.27 -57.4,118.65 -23.52,26.24 -72.21,54.16 -126.23,53.4 -40.15,-0.58 -103.42,-20.63 -143.82,-31.17 -57.32,-14.95 -81.46,-30.06 -129.5,-51.17 -29.69,-13.04 -110.31,-36.35 -129,-48.74zm-1547.71 32.73c-44.57,43.38 154.27,67.99 209.64,66.33 87.44,-2.62 213.53,-50.58 51.8,40.8 -395.69,223.6 -1005.44,184.23 -1318.44,-93.71l-75.45 -70.02c-11.03,-10.74 -19.72,-22.91 -32.48,-38.02 -62.96,-74.54 -40.94,-75.33 -4.92,-136.57 17.61,-29.93 34.75,-58.37 54.71,-86.4 76.74,-107.7 167.09,-196.14 306.24,-262.33 217.28,-103.36 476.14,-98.06 694.39,12.01 38.22,19.28 161.58,83.54 174.81,107.77 -30.06,18.72 -198.69,-11.04 -224.72,44.38 75.06,43.08 131.57,-25.24 325.68,61.28 55.96,24.94 203.64,122.15 223.22,161.74 -69.49,4.05 -286.62,-68.92 -324.98,-11.83 -12.56,44.1 164.69,72.27 196.41,77.34 40.17,6.42 209.62,27.12 231.98,41.63 -10.04,76.96 -337.66,87.79 -424.56,81.35 -19.56,-1.45 -51.66,-9.06 -63.33,4.27zm-1237.9 -345.59c0,65.08 -22.93,117.82 -66.38,142.85 -78.33,45.14 -213.62,-33.11 -258.74,-141.62 -20.67,-49.72 -38.81,-112.51 -40.56,-173.07 -1.51,-52.24 8.09,-142.53 32.39,-181.2 42.22,-67.19 167.95,-157.12 250.84,-172.2 209.93,-38.22 453.6,-0.09 653.65,44.4 162.87,36.21 217.14,64.94 348.09,131.78 17.99,9.18 15.03,9.61 19.25,16.89 -60.33,-5.42 -109.7,-18.14 -174.02,-18.14 -150.77,0 -293.57,40.5 -407.3,106.15 -55.1,31.82 -132.08,84.08 -174.6,129.38 -12.26,13.06 -20.12,18.52 -30.46,31.11 -12,14.59 -41.09,55.74 -57.42,62.16 -24.23,-29.84 -10.52,-62.44 -54.58,-104.63 -55.51,-53.13 -131.69,-53.38 -201.98,-15.86 -29.37,15.68 -41.72,30.66 -35.37,68.74 43.08,11.55 56.05,-41.83 129.81,-24.26 45.4,10.81 67.38,43.96 67.38,97.52zm2110.74 -114.05c8.08,-37.89 75.29,-148.77 96.32,-179.41 21.55,-31.4 35.4,-50.79 57.41,-79.25 78.77,-101.87 247.37,-234.4 378.69,-291.2 234.81,-101.59 428.3,-127.73 678.29,-77.56 45.98,9.23 192.52,32.47 218.58,49.42 3.54,34.15 -36.06,168.79 -47.96,202.93 -21.69,62.29 -49.07,118.8 -80.18,170.83 -134.39,224.77 -277.66,379.28 -508.77,496.02 -84.8,42.84 -294.23,120.68 -380.1,122.14 19.34,-18.11 52.95,-31.87 78.7,-44.71 33.63,-16.76 192.62,-105.96 201.67,-138.14 16.53,-58.76 -128.96,24.07 -159.71,39.12 -151.41,74.07 -333.75,157.16 -508.75,160.01l-145.93 -7.19c6.14,-12.62 9.59,-13.71 23.51,-21.54 11.08,-6.23 16.59,-9.14 28.1,-16.03 56.17,-33.63 95.34,-65.54 144.75,-106.47l86.82 -84.96c18.12,-19.73 66.56,-65 66,-102.01 -29.31,0.3 -62.05,38.06 -82.03,59.53 -34.57,37.13 -199.81,163.71 -246.78,170.42 0.57,-68.14 99.25,-210.94 130.77,-251.17 29.18,-37.24 56.8,-66.63 87.16,-102.2 33.58,-39.33 109.03,-108.27 61.31,-113.71 -8.28,-0.94 -10.95,0.34 -17.3,3.12 -14.51,6.37 -57.05,47.04 -70.16,57.97 -25.33,21.12 -61.94,70.61 -90.43,84.02zm-428.07 182.04c-37.32,-11.77 -148.2,-126.37 -172.6,-156.94 -168.97,-211.55 -265.53,-417.66 -252.73,-721.84 8.41,-199.73 66.77,-354.54 145.81,-506.97 26.95,-51.97 93.94,-154.86 132.94,-193.18 104.97,-103.11 105.53,-88.44 198.24,-36.17 73.25,41.29 129.97,94.64 180.82,145.31 55.67,55.49 97.43,108.92 147.16,178.96 105.85,149.07 138.11,259.4 174.71,473.05 21.38,124.82 27.22,57.17 -84.78,216.28 -101.1,143.65 -148.6,288.87 -187.66,464.65 -9.6,43.2 -40.43,248.46 -54.39,267.15 -20,-0.23 -7.38,4.24 -20.3,-10.55l-192.4 -257.03c-81.18,-127.61 -66.94,-105.62 -126.07,-235.4 -26.47,-58.1 -19.86,-67.06 -49.59,-71.24 -30.1,63.57 69.03,272.96 105.34,341.8 14.27,27.08 47.74,75.21 55.49,102.12zm393.92 -304.32c11.46,-65.15 74.23,-184.4 105.03,-232.44 127.09,-198.18 328.55,-401.49 601.06,-401.49 61.47,0 214.15,11.06 264.09,32.53 -12.49,11.17 -12.6,7.22 -43.6,8.72 -190.6,9.2 -394.52,87.35 -547.14,185.21 -57.44,36.83 -115.96,85.43 -163.04,132.08 -17.63,17.47 -29.55,32.8 -47.99,48.95 -85.77,75.14 -144.17,212.61 -168.4,226.44zm-1439.75 -1081.39c23.11,18.18 111.29,92.21 105.49,132.38 -32.49,22 -177.09,0.7 -214.1,-10.35 -109.49,-32.67 -208.41,-120.78 -264.38,-220.49 -15.86,-28.26 -65.48,-146.9 -56.99,-181.16 16.43,2.78 44.64,39.07 61.38,53.48 76.01,65.49 128.81,87.46 221.77,134.93 57.37,29.31 99.12,53.63 146.84,91.2zm12.06 -405.2c0,-24.35 5.16,-46.73 12.13,-68.23 11.47,-35.37 11.55,-43.72 29.1,-49.64 25.37,22.32 133.8,289.29 62.77,404.25 -16.05,-8.07 -30.75,-39.85 -40.31,-58.03 -11.64,-22.14 -20.29,-42.08 -30.19,-66.92 -18.03,-45.25 -33.5,-107.55 -33.5,-161.42zm1714.04 866.13c-6.69,-15.94 25.4,-105.08 31.4,-126.4 12.73,-45.25 19.99,-91.4 28.58,-139.01 39.38,-218.2 66.73,-293.82 200.37,-460.4 33.14,-41.31 139.09,-135.9 186.05,-144.94 -5.63,17.9 -54.41,80.28 -68.57,99.29 -53.87,72.35 -144.84,230.01 -182.52,311.11 -39.69,85.45 -153.05,417.72 -195.32,460.36zm-1402.6 -890.11c-9.11,-33.06 13.96,-160.83 27,-189.47 18.16,-39.86 70.61,-112.99 99.29,-122.94 6.94,102.35 18.83,145.26 -25.79,244.88 -19.59,43.71 -77.72,68.7 -100.5,67.53zm-131.61 126.12c-12.38,-44.3 -16.3,-83.01 -34.4,-127.6 -17.24,-42.47 -35.54,-72.46 -49.29,-118.07 -11.57,-38.41 -19.65,-104.52 -74.01,-73.32 -27.71,15.91 -57.64,60.83 -73.43,94.17 -36.86,77.83 -31.09,205.53 -2.91,288.08 14.27,41.79 32.68,76.9 53.66,113.82 17.71,31.16 45.24,76.11 57.49,107.41l-135.94 -81.73c-47.64,-26.54 -95.58,-50.93 -141.68,-78.78 -72.4,-43.75 -132.25,-85.41 -189.69,-140.81 -90.75,-87.53 -91.2,-42.37 -74.79,62.56 6.05,38.64 14.67,77.6 27.1,112.95 74.12,210.65 258.39,348.99 485.54,346.3 19.26,-0.23 47.62,-1.49 66.05,1.12 34.03,4.81 43.14,64.82 78.32,133 64.18,124.33 148.73,217.61 210.15,344.97 17.64,36.58 78.93,164.45 76.18,203.49 -20.03,-7.33 -132.54,-130.97 -159.26,-155.44l-111.66 -99.88c-163.15,-128.3 -235.92,-199.77 -440.75,-304.01 -54.15,-27.56 -272.95,-115.47 -339.28,-77.44 -4.08,33.44 77.24,39.35 134.97,57.2 223.41,69.05 417.61,189.44 586.73,343.01 10.89,9.88 16.04,16.93 26.72,26.02 27.4,23.37 187.69,179.6 198.43,199.77 -22.31,-3.39 -102.12,-58.18 -126.75,-73.08 -42.72,-25.83 -81.78,-46.71 -127.82,-70.49 -181.83,-93.91 -414.96,-176.74 -627.22,-176.23 -134.29,0.32 -219.27,35.65 -310.84,91.72 -180.06,110.27 -266.59,332.32 -243.15,552.13 17.55,164.65 112.53,301.69 258.93,340.16 97.33,25.58 91.33,-5.27 165.6,-15.3 11.12,9.97 42.14,66.03 53.81,82.37 18.21,25.49 43.3,52.13 63.08,73.43 21.59,23.24 47.84,43.44 71.97,64.63 74.75,65.64 156.69,116.18 244.41,165.3 29.91,16.75 58.43,31.62 91.16,45.46 20.82,8.81 84.66,30.8 95.89,46.91 -45.68,31.89 -375.37,64.77 -461.46,82.42 -159.61,32.75 -448.56,140.96 -582.17,228.5 -117.94,77.26 -205.27,161.33 -237.53,304.52 -50.93,226.14 65.26,427.87 291.23,500.51 357.38,114.88 775.53,24.69 1094.73,-154.55l122.02 -80.78c15.5,-11.55 23.35,-23.17 45.69,-26.57 22.83,108.33 -1.67,148.04 50.75,301.54 19.41,56.82 46.41,133.63 88.53,175.82 18.91,18.94 36.6,20.52 71.19,20.38 114.36,-0.45 206.27,-6.45 306,-45.53 46.89,-18.37 217.69,-108.3 249.42,-107.94 5.91,46.12 -7.81,73.52 7.25,129.32 64.03,237.2 400.51,335.45 604.76,104.19 87.16,-98.69 119.57,-270.04 108.73,-432.23 -13.02,-194.75 -136.16,-334.12 -140.37,-419.56 23.52,7.38 120.51,96.54 155.4,120.41 164.68,112.67 404.38,210.05 616.79,212.8 85.85,1.11 169.09,-8.17 247.76,-26.57 48.93,-11.45 175.53,-46.04 199.44,-78.08 36.38,-48.75 4.58,-289.54 -15.36,-363.73 -6.81,-25.36 -33.51,-88.01 -29.75,-108.87 49.59,-7.28 133.54,21.6 318.38,-11.94 277.42,-50.33 518.46,-158.76 656.61,-401 85.22,-149.42 124,-441.3 -26.66,-528.91 -77.42,-45.01 -205.94,-28.46 -248.23,55.73 -72.39,144.13 100.01,200.58 131.09,131.5 -5.63,-33.98 -50.28,-48.72 -55.62,-80.65 -10.67,-63.8 122.79,-82.53 168.31,-18.37 16.2,22.83 35.22,62.63 35.64,99.72 0.41,36.38 -43.76,51.83 -68.09,65.94 -114.9,66.57 -202.37,53.8 -319.11,5.31 -84.67,-35.18 -115.3,-55.57 -163.53,-109.73 -41.53,-46.63 -92.83,-92.75 -131.18,-141.96 -17.97,-23.06 -46.75,-50.8 -67.23,-69.45 -25.47,-23.2 -47.34,-39.26 -76.63,-59.92 -63.83,-45.02 -107.56,-59.15 -187.03,-86.12 2.71,-34.88 179.08,-239.84 210.89,-483.05 16.22,-123.99 21.97,-131.07 -224.18,-182.48 -154.89,-32.35 -282.05,-87.05 -446.37,-108.97 -304.99,-40.71 -388.9,69.24 -464.05,82.12 20.22,-43.95 161.55,-162.03 219.58,-190.79 25.91,-12.84 77.78,-33.74 93.54,-45.72l0.57 -25.65c-31.16,-20.38 -88.4,-8.71 -124.87,5.49 -16.47,6.42 -36.34,16.47 -50.11,24.81 -15.9,9.6 -30.7,26.96 -48.94,26.99 -0.06,-25.42 84.29,-206.37 99.96,-240.2 36.59,-78.98 80.16,-156.33 124.59,-223.74l144.26 -203.85c24.33,-32.06 49.42,-72.93 96.23,-74.46 50.79,-1.65 106.91,9.49 150.84,24.44 90.54,30.82 164.61,76.24 206.15,137.6 23.3,34.4 44.68,77.69 30.94,132.06 -10.55,41.76 -41.82,94.4 -63.77,112.58 -101.88,84.36 -268.52,46.56 -217.33,-102.6 8.36,-24.34 19.52,-33.15 46.38,-41.85 67.49,-21.85 108.93,20.07 142.17,1.98 10.35,-72.34 -136.39,-77.73 -189.93,-49.65 -46.67,24.46 -91.68,102.09 -73.41,179.79 33.6,142.92 232.3,161.84 340.45,69.6 99.93,-85.22 142.07,-241.37 41.73,-372.43 -116.17,-151.74 -295.85,-158.95 -342.76,-184.3 1.54,-20.87 14.05,-24.12 27.88,-33.77 37.6,-26.23 69.03,-53.1 113.27,-76.07 44.35,-23.03 153.55,-61.34 185.97,-5.5 -7.41,43.44 -62.22,41.52 -52.3,80.72 22.92,43.86 132.61,-19.07 114.5,-105.3 -5.26,-25 -17.66,-37.4 -34.52,-48.99 -141.24,-97.11 -359.59,51.6 -455.15,145.9 -45.46,44.86 -37.79,38.32 -111.19,56.47 -122.52,30.28 -223.33,114.7 -300.65,197.18 -118.74,126.66 -184.29,269.43 -218.59,446.72 -8.68,44.84 -41.24,258.51 -58.8,275.19 -12.26,-16.61 -36.3,-93.74 -48.96,-122.01 -87.15,-194.64 -218.21,-360.98 -384.13,-488.42 -33.79,-25.96 -65.52,-47.27 -108.73,-67.49 -38.91,-18.22 -82.12,-54.67 -128.94,-31.72 -77.12,37.79 -178.03,129.07 -246.32,189.96 -135.05,120.43 -246.41,321.8 -286.98,501.66 -6.19,27.43 -21.5,132.32 -29.78,146.07 -13.11,-5.34 -19.35,-22.05 -28.58,-37.07 -65.25,-106.21 -135.51,-189.3 -171.53,-317.65 -44.07,-157.07 0.84,-342.52 80.9,-442.52 59.04,-73.74 173.45,-153.9 277.94,-92.38 110.44,65.03 71.37,245.8 -27.18,259.77 -101.85,14.44 -107,-148.57 -149.18,-127.79 -37.7,18.57 6.78,160.75 84.72,188.71 212.35,76.17 316.92,-280.19 110.52,-392.27 -34.7,-18.83 -93.03,-21.79 -114.52,-35.22 0.14,-19.4 32.17,-98.94 34.75,-179.52 1.21,-37.92 2.6,-66.53 6.96,-102.43 5.42,-44.48 15.77,-53.82 -10.31,-87.1 -36.83,-4.88 -58.24,8.06 -82.27,25.52 -18.03,13.1 -44.11,35.35 -58.44,51.68 -38.49,43.87 -66.9,69.65 -90.94,129.45 -48.7,121.17 -2,244.03 -29.23,283.45l-35.74 43.4c-12.32,12.34 -3.58,8.42 -20.07,13.75z"/>
   <path fill="#057E7F" d="M3796.65 4029.38c-7.74,-26.91 -41.21,-75.04 -55.49,-102.12 -36.31,-68.85 -135.43,-278.24 -105.34,-341.8 29.72,4.17 23.12,13.14 49.59,71.24 59.13,129.78 44.89,107.79 126.07,235.4l192.4 257.03c12.92,14.78 0.3,10.32 20.3,10.55 13.96,-18.69 44.79,-223.95 54.39,-267.15 39.05,-175.78 86.55,-321 187.66,-464.65 111.99,-159.1 106.16,-91.46 84.78,-216.28 -36.6,-213.66 -68.86,-323.99 -174.71,-473.05 -49.73,-70.04 -91.49,-123.47 -147.16,-178.96 -50.84,-50.67 -107.57,-104.02 -180.82,-145.31 -92.71,-52.26 -93.27,-66.93 -198.24,36.17 -39.01,38.32 -106,141.2 -132.94,193.18 -79.04,152.43 -137.4,307.24 -145.81,506.97 -12.8,304.18 83.76,510.29 252.73,721.84 24.4,30.57 135.28,145.16 172.6,156.94z"/>
   <path fill="#057E7F" d="M4224.72 3847.35c28.49,-13.41 65.1,-62.9 90.43,-84.02 13.1,-10.93 55.65,-51.6 70.16,-57.97 6.35,-2.78 9.01,-4.07 17.3,-3.12 47.72,5.44 -27.73,74.38 -61.31,113.71 -30.36,35.57 -57.98,64.95 -87.16,102.2 -31.52,40.23 -130.2,183.03 -130.77,251.17 46.97,-6.71 212.21,-133.28 246.78,-170.42 19.98,-21.47 52.72,-59.23 82.03,-59.53 0.56,37.01 -47.88,82.29 -66,102.01l-86.82 84.96c-49.41,40.93 -88.58,72.83 -144.75,106.47 -11.51,6.9 -17.02,9.8 -28.1,16.03 -13.92,7.82 -17.36,8.92 -23.51,21.54l145.93 7.19c175,-2.86 357.34,-85.95 508.75,-160.01 30.75,-15.04 176.24,-97.88 159.71,-39.12 -9.05,32.17 -168.05,121.38 -201.67,138.14 -25.75,12.84 -59.36,26.6 -78.7,44.71 85.87,-1.46 295.3,-79.31 380.1,-122.14 231.11,-116.74 374.38,-271.25 508.77,-496.02 31.11,-52.03 58.49,-108.54 80.18,-170.83 11.9,-34.14 51.49,-168.78 47.96,-202.93 -26.06,-16.95 -172.6,-40.19 -218.58,-49.42 -249.98,-50.18 -443.48,-24.03 -678.29,77.56 -131.32,56.8 -299.93,189.33 -378.69,291.2 -22.01,28.46 -35.86,47.85 -57.41,79.25 -21.03,30.65 -88.24,141.53 -96.32,179.41z"/>
   <path fill="#057E7F" d="M3351.88 4307c11.68,-13.32 43.77,-5.72 63.33,-4.27 86.9,6.44 414.52,-4.39 424.56,-81.35 -22.36,-14.52 -191.81,-35.22 -231.98,-41.63 -31.72,-5.07 -208.97,-33.24 -196.41,-77.34 38.36,-57.09 255.49,15.88 324.98,11.83 -19.59,-39.59 -167.26,-136.8 -223.22,-161.74 -194.11,-86.51 -250.62,-18.2 -325.68,-61.28 26.02,-55.42 194.66,-25.67 224.72,-44.38 -13.23,-24.23 -136.6,-88.49 -174.81,-107.77 -218.25,-110.07 -477.1,-115.37 -694.39,-12.01 -139.15,66.2 -229.5,154.63 -306.24,262.33 -19.96,28.03 -37.11,56.48 -54.71,86.4 -36.03,61.24 -58.04,62.03 4.92,136.57 12.76,15.12 21.45,27.28 32.48,38.02l75.45 70.02c313,277.94 922.74,317.32 1318.44,93.71 161.73,-91.38 35.64,-43.42 -51.8,-40.8 -55.37,1.66 -254.21,-22.95 -209.64,-66.33z"/>
   <path fill="#057E7F" d="M3125.77 4954.84c-17.79,5.58 -69.48,38.92 -81.55,49.25 -20.09,17.19 -33.54,55.06 -45.3,82.4 -44.93,104.35 -120.39,235.87 -179.76,331.49 -16.66,26.81 -31.18,53.21 -49.29,78.51 -10.28,14.38 -46.27,69.39 -68.22,42.75 -16.03,-26.51 34.88,-95.57 47.04,-116.93 37.1,-65.12 175.54,-297.96 178.8,-347.96 -18.78,3.48 -67.49,30.99 -76.25,40.77 -11.05,12.35 -29.21,59.23 -39.44,79.28 -51.94,101.81 -113.79,206.27 -173.8,302.3 -19.17,30.66 -74.25,132.13 -110.13,124.04 -18.9,-29.09 30.31,-90.99 44.64,-114.65 22.62,-37.38 43.64,-70.44 65.32,-110.92 19.11,-35.69 114.51,-198.79 115.9,-229.93 -19.56,-0.28 -76.4,27.34 -98.21,36.08 -104.22,41.74 -77.83,15.9 -116.79,94.83 -67.6,136.96 -174.34,250.24 -266.57,368 -11,14.05 -60.72,75.56 -78.86,48.3 -14.48,-21.75 56.17,-85.15 69.1,-102.28 47.74,-63.21 205.92,-271.12 210.7,-333.4 -32.24,2.44 -138.79,39.24 -156.39,61.8 -46.86,60.09 -78,125.7 -136.64,189.35 -33,35.82 -133.39,158.36 -172.44,154.53 -10.28,-26.37 31.61,-62 49.06,-79.63 48.73,-49.22 170.39,-194.9 183.12,-244.55 -20.94,-0.97 -131.86,31.85 -152.5,41.56 -21.21,9.97 -27.38,32.98 -42.92,54.13 -55.7,75.76 -120.75,135.26 -185.4,202.32 -14.65,15.19 -33.35,42.49 -63.67,36.07 -4.54,-29.83 24.43,-49.43 40.41,-68.09l101.7 -123.14c13.88,-15.87 44.79,-46.41 47.36,-68.75 -71.57,5.81 -242.77,71.6 -302.09,50.92 -4.75,-26.57 26.6,-26.31 53.53,-33.3 65.24,-16.96 134.06,-29.11 196.74,-54.51 3.66,-1.48 5.83,-2.38 9.22,-4.42 7.34,-4.47 3.62,-1.79 8.16,-6.36l-26.62 -10.21c-65.54,-16.95 -129.24,-39.75 -192.96,-62.66 -44.81,-16.11 -204.88,-54.99 -170.93,-104.78 20.24,-9.37 56.94,12.17 79.28,20.18 109.11,39.16 220.7,65.75 333.67,93.91 49.81,12.41 62.87,27.22 75.17,30.57 18.59,5.06 63.36,-13.07 82.26,-19.04 20.23,-6.38 66.59,-13.19 77.79,-31.71 -15.34,-14.74 -111.77,-36.11 -139.18,-45.09 -71.39,-23.39 -305.41,-105.55 -362.76,-148.64 -4.28,-3.21 -9.07,-7.08 -10.86,-11.74 -24.07,-62.69 167.71,31.69 186.47,39 132.04,51.34 240.91,88.02 379.49,122.73 50.45,12.63 48.34,16.64 97.82,0.08 30.4,-10.18 68.34,-19.55 90.71,-35.41 -10.32,-14.12 -119.95,-45.89 -146.14,-55.43 -100.34,-36.55 -196.96,-78.62 -296.01,-118.18 -30.12,-12.03 -133.97,-45.26 -121.08,-77.28 4.8,-5 -1.04,-2.39 7.93,-5.95 28.16,-11.18 61.78,10.8 86.12,22.01 29.52,13.59 60.12,24.65 90.65,37.28 63.11,26.11 122.73,50.51 186.34,73.6 64.71,23.48 126.92,39.18 194.77,60.88 32.16,10.28 63.06,34.4 98.69,26.33 16.85,-3.82 79.03,-34.3 87.93,-42.82l-275.4 -123.8c-65.35,-34.01 -136.53,-63.96 -204.91,-94.87 -24.94,-11.28 -49.21,-21.28 -43.5,-51.23 42.05,-13.36 133.52,43.87 174,61.6 57.04,24.98 108.84,53.35 165.3,77.3 27.32,11.58 245.66,99.82 269.04,95.75 21.5,-3.75 69.73,-31.39 79.06,-44.07 -14.83,-16.94 -195.78,-83.05 -234.38,-99.37 -24.63,-10.41 -238.49,-82.86 -213.19,-114.67 16.06,-20.19 58.15,2.52 78.26,11.61 23.61,10.66 47.36,20.87 70.63,30.72 47.13,19.96 94.63,39.97 144.39,58.31 30.19,11.12 203.09,73.92 230.19,72.84 21.11,-0.84 57.88,-22.79 66.73,-38.75 -8.13,-12.54 -26.44,-16.44 -43,-23.6l-147.4 -59.7c-32.19,-12.84 -66,-25.84 -97.29,-39.31 -33.01,-14.21 -82.15,-25.68 -67.54,-68.81 41.63,-8.23 182.26,68.38 246.95,92.1 42.31,15.52 87.46,27.09 128.34,43.48 23.9,9.58 40.04,21.23 63.45,7.8 17.25,-9.91 39.31,-22.25 45.96,-38.4 -14.4,-18.11 -80.87,-42.3 -108.42,-54.2 -34.61,-14.94 -97.48,-30.02 -91.01,-69.81 40.82,-15.59 192.43,60.17 240.62,74.87 30.49,9.3 71.42,-34.55 108.59,-47.32 26.27,-9.03 32.96,-20.8 47.92,-35.81 13.48,-13.49 33.53,-25.44 38.02,-45.11 -25.02,-1.73 -86.18,10.43 -155.02,5.95 -55.08,-3.59 -103.72,-6.94 -157.49,-15.59 -123.88,-19.95 -129.35,-48.48 -199.32,-18.01 -71.42,31.1 -471.88,64.91 -650.89,120.22 -204.56,63.19 -541.3,194.43 -633.52,388.77 -45.37,95.6 -52.87,171.64 -16.5,277.76 60.65,177.01 193.44,241.15 405.42,273.02 202.21,30.41 417.19,8.12 597.7,-53.36 171.37,-58.37 329.7,-139.78 452.43,-230.53 53.23,-39.37 50.82,-26.5 59.46,-108.52 9.91,-94.02 27.47,-195.3 60.23,-282.98 12.23,-32.75 49.72,-97.3 52.99,-121.77z"/>
   <path fill="#057E7F" d="M3740.51 4540.31c-39.94,35.33 -103.26,106 -141.85,150.19l-140.15 159.43c-30.21,28.38 -30.48,35.86 -54.85,31.93 -23.04,-66.01 143.68,-227.44 153.14,-260.25 -29.36,7.24 -87.5,45.45 -110.74,61.56 -16.95,11.75 -30.71,26.85 -43.37,40.47 -11.04,11.89 -13.57,13.3 -23.1,20.89 -130.01,103.35 -241.03,275.52 -284.62,446.71 -52.01,204.32 -69.53,397.13 6.86,595.89 14.51,37.75 30.45,72.87 46.26,107.82 27.5,60.77 24.12,56.15 99.79,47.4 160.82,-18.61 339.04,-73.43 454.62,-174.38 169.9,-148.41 282.97,-417.21 299.13,-638.91 6.11,-83.76 -0.44,-225.1 -12.75,-305.31 -8.19,12.59 -8.61,27.5 -11.21,43.22 -13.08,79.13 -28.37,129.28 -65.3,198.73 -13.7,25.75 -47.93,60.37 -47.93,1.73 0,-48.52 52.13,-334.13 57.78,-475.83l6.07 -185.15c0,-26.21 -2.15,-12.85 -6.86,-18.13 -17.25,6.15 -148.35,282.6 -168.86,310.65 -18.2,24.89 -53.85,34.23 -56.59,-5.7 -4.02,-58.81 44.47,-116.78 44.52,-152.96z"/>
   <path fill="#057E7F" d="M4176.8 4657.92c11.83,61.12 126.23,193.84 165.29,241.48 41.39,50.5 107.48,103.77 162.67,141.36 15.92,10.84 56.91,33.33 38.06,56.19 -36.53,39.24 -226.13,-140.88 -258.03,-175.57 -13.4,-14.57 -21.07,-25.29 -35.89,-39.01 -13.52,-12.52 -22.19,-33.05 -39.65,-35.23 -9.32,23.03 5.14,86.12 6.82,114.53 2.9,48.66 8.81,70.81 37.48,96.72 28.23,25.5 95.32,103.1 133.01,131.4 24.97,18.74 45.63,37.52 74.13,57.98 177.87,127.78 446.52,259.61 669.64,254.75 104.8,-2.29 233.68,-27 332.34,-62.93 46.52,-16.94 64.61,-14.2 61.74,-72.57 -6.51,-132.42 -92.19,-291.21 -148.69,-381.96 -72.74,-116.86 -156.48,-198.69 -251.4,-277.54 -154.25,-128.15 -474.42,-299.15 -747.6,-309.32 8.85,18.02 105.63,66.42 129.7,81.29 91.42,56.49 164.84,108.57 244.72,178.31 20.14,17.58 36.35,34.87 53.59,52.09 10.95,10.95 48.66,42.29 39.09,61.51 -0.07,0.09 -0.35,13.71 -26.9,1.76l-63.94 -46.89c-29.59,-21.51 -56.18,-39.32 -85.4,-59.88 -56.14,-39.49 -118.19,-78.59 -181.35,-113.95 -44.84,-25.11 -366.83,-188.9 -402.83,-183.7 0.5,20.71 45.92,95.9 57.16,115.25 40.45,69.55 105.59,144.17 161.77,199.53l95.92 84.8c17.71,13.09 89.95,69.43 89.83,87.86 -0.33,59.7 -198.83,-102.06 -212.62,-114.97 -15.99,-14.95 -81.65,-76.31 -98.67,-83.28z"/>
   <path fill="#057E7F" d="M2113.97 3961.4c0,-53.55 -21.98,-86.71 -67.38,-97.52 -73.77,-17.57 -86.73,35.82 -129.81,24.26 -6.35,-38.08 6,-53.07 35.37,-68.74 70.29,-37.52 146.47,-37.27 201.98,15.86 44.06,42.19 30.36,74.79 54.58,104.63 16.33,-6.42 45.42,-47.57 57.42,-62.16 10.35,-12.59 18.2,-18.05 30.46,-31.11 42.52,-45.3 119.5,-97.57 174.6,-129.38 113.73,-65.65 256.53,-106.15 407.3,-106.15 64.31,0 113.69,12.72 174.02,18.14 -4.22,-7.28 -1.26,-7.71 -19.25,-16.89 -130.96,-66.84 -185.22,-95.56 -348.09,-131.78 -200.05,-44.49 -443.72,-82.62 -653.65,-44.4 -82.89,15.08 -208.62,105.01 -250.84,172.2 -24.3,38.66 -33.9,128.96 -32.39,181.2 1.74,60.56 19.89,123.35 40.56,173.07 45.12,108.51 180.4,186.76 258.74,141.62 43.45,-25.03 66.38,-77.78 66.38,-142.85z"/>
   <path fill="#057E7F" d="M4899.59 4274.26c18.7,12.39 99.31,35.7 129,48.74 48.04,21.11 72.18,36.22 129.5,51.17 40.4,10.54 103.67,30.59 143.82,31.17 54.02,0.76 102.71,-27.16 126.23,-53.4 22.75,-25.38 48.23,-74.07 57.4,-118.65 35.53,-172.73 -124.04,-176.74 -161.16,-95.33 -24.06,52.76 32.94,98.81 24.54,144.04 -54.75,65.69 -135.63,-95.99 -81.08,-178.68 40.62,-61.59 126.38,-111.95 227.74,-66.54 56.34,25.24 52.77,68.61 71.37,91.46 14.31,17.58 185.03,18.18 252.53,161.68 10.19,21.67 12.83,41.42 24.86,58.11 50.8,4.61 82.54,-2.26 126.37,19.9 33.61,16.99 56.82,42.28 75.07,74.76 11.17,19.86 11.06,30.41 33.93,36.1 50.26,12.49 246.7,-2.33 202.75,154.45 -10.61,37.86 -43.27,67.8 -63.79,86.23 -39.17,35.22 -34.57,33.05 -81.26,64.1 -293.35,195.09 -526.92,14.23 -747.27,-125.95 -35.75,-22.74 -156.86,-104.3 -186.93,-116.2 18.07,39.05 166.79,160.26 262.27,340.36 20.98,39.55 40.9,47.84 97.89,51.23 143.37,8.51 261.56,-11.32 398.28,-51.94 217.36,-64.58 415.19,-177.34 501,-398.1 6.45,-16.6 33.94,-100.98 32.45,-116.51 -2.67,-27.61 -37.37,12.35 -94.71,32.3 -189.35,65.88 -423.05,-57.28 -534.33,-181.9l-72.96 -76.67c-49.74,-52.86 -88.36,-105.61 -153.98,-150.07 -26.92,-18.23 -164.59,-94.95 -208.48,-88.7 -13.2,1.88 -96.1,94.05 -112.75,111.01 -12.51,12.75 -24.83,20.58 -40.33,34.56 -86.18,77.77 -213.82,149.49 -326.7,197.74 -23.43,10.01 -43.48,13.13 -51.29,29.5z"/>
   <path fill="#057E7F" d="M3975.75 5690.07c23.26,8.65 49.07,7.65 74.88,20.66 110.36,55.62 159.96,224.21 118.94,251.58 -52.04,34.7 -49.5,-100.16 -130.52,-165.19 -73.39,-58.91 -226.2,-0.08 -191.34,147.4 6.13,25.89 17.11,47.78 30.12,66.88 7.72,11.34 12.52,16.76 21.17,27.2 8.94,10.78 13.3,19.13 23.26,29.72 117.88,125.42 407.68,100.62 474.1,-174.89 10.23,-42.49 20.87,-137.75 19.9,-182.68 -5.33,-250.17 -156.39,-376.44 -171.93,-524.41 -4.12,-39.23 15.87,-67.15 -21.82,-80.86 -28.61,107.78 -0.77,153.55 -78.2,337.62 -21.59,51.32 -45.25,93.62 -74.44,132.66 -14.09,18.85 -30.2,42.1 -45.5,55.92 -17.43,15.74 -41.47,33.4 -48.62,58.39z"/>
   <path fill="#DEDB24" d="M7206.42 3132.14c-33.84,15.02 -24.28,37.5 -15.24,72.7 7.12,27.72 13.27,54.67 19.12,82.06 163.19,763.15 64.14,1553 -295.98,2238.52l-111.15 197.03c-7.57,29.72 19.78,57.31 51.66,43.43 49.6,-21.62 247.01,-462.37 279.18,-545.35 77.53,-200.01 140.79,-418.49 178.61,-645.17 72.01,-431.61 65.08,-887.84 -32.94,-1317.98 -9.19,-40.33 -16.72,-150.31 -73.26,-125.23z"/>
   <path fill="#DEDB24" d="M764.73 3158.58c-30.37,9.6 -28.23,31.64 -36.63,67.1 -106.68,450.04 -116.76,939.87 -33.16,1390.08 75.05,404.2 214.37,765.47 419.49,1109.67 12.51,21 26.25,54.33 61.59,41.73 52.58,-18.74 -5.75,-90.68 -27.36,-128.68 -378.55,-665.47 -515.52,-1414.84 -391.45,-2180.96 9.21,-56.86 20.58,-114.57 32.81,-170.07 5.79,-26.25 14.59,-55.83 19.28,-82.23 5.67,-31.91 -15.86,-55.7 -44.56,-46.64z"/>
   <path fill="#DEDB24" d="M4396.06 893.17l73.11 14.89 111.81 -237.45 29.64 262.07 74.11 12.01 153.87 -375.87 -75.62 -15.68c-5.98,24.38 -87.8,222.53 -97.66,233.93 -2.77,-37.1 -18.97,-237.24 -29.97,-252.56 -12.65,-9.63 -41.42,-10.86 -59.58,-13.49 -14.73,33.39 -98.44,214.72 -113.14,231.35l-12.76 -250.4 -33.07 -8.59c-13.17,-2.18 -26.82,-4.69 -41.21,-6.47l20.47 406.26z"/>
   <path fill="#057E7F" d="M3827.01 5730.87c69.83,-41.72 170.25,-149.47 215.69,-226.28 150.22,-253.99 121.78,-563.97 49.23,-839.67 -9.55,-36.33 -48,-108.99 -65.64,-154.85 -10.63,-27.64 -18.26,-59.79 -29.68,-84.84 -7.76,19.05 37.93,307.35 43.78,352.41 35.79,276.13 37.28,439.27 -67.32,697.03 -20.13,49.62 -40.99,91.28 -66.72,135.95 -12.76,22.17 -24.47,41.13 -39.69,61.64 -11.21,15.12 -38.98,39.91 -39.65,58.62z"/>
   <path fill="#057E7F" d="M4190.57 3725.07c24.24,-13.83 82.64,-151.31 168.4,-226.44 18.44,-16.15 30.36,-31.48 47.99,-48.95 47.08,-46.65 105.6,-95.25 163.04,-132.08 152.62,-97.86 356.54,-176.01 547.14,-185.21 31,-1.5 31.11,2.44 43.6,-8.72 -49.94,-21.47 -202.61,-32.53 -264.09,-32.53 -272.5,0 -473.97,203.31 -601.06,401.49 -30.8,48.04 -93.57,167.29 -105.03,232.44z"/>
   <path fill="#057E7F" d="M2856.31 2776.06c5.8,-40.17 -82.38,-114.2 -105.49,-132.38 -47.72,-37.58 -89.48,-61.9 -146.84,-91.2 -92.96,-47.48 -145.76,-69.44 -221.77,-134.93 -16.73,-14.41 -44.94,-50.71 -61.38,-53.48 -8.49,34.26 41.13,152.9 56.99,181.16 55.97,99.71 154.88,187.82 264.38,220.49 37.02,11.05 181.61,32.35 214.1,10.35z"/>
   <path fill="#DEDB24" d="M5337.89 835.88c169.38,-38.59 218.58,225.38 49.68,262.93 -168.53,37.47 -224.49,-223.11 -49.68,-262.93zm-8.33 -74.68c-186.4,33.17 -234.95,264.79 -94.87,372.53 39.88,30.68 101.3,52.04 165.99,39.74 100.2,-19.06 187.92,-118.21 167.13,-241 -17.77,-104.97 -113.02,-193.53 -238.24,-171.26z"/>
   <path fill="#DEDB24" d="M994.95 2154.17l126.05 76.26c-5.02,22.45 -48.96,86.55 -62.68,113.49l-131.78 -74.52 -38.32 65.51 341.67 203.81 41.63 -67.6c-23.72,-10.8 -53.01,-29.85 -76.19,-43.4 -24.21,-14.15 -54.45,-30.39 -73.37,-44.96l65.47 -112.16c49.54,26.89 101.18,57.67 148.79,86.2 11.49,-10 35.77,-53.87 39.55,-65.45l-342.91 -203.42 -37.93 66.24z"/>
   <path fill="#DEDB24" d="M5997.07 1282.27c12.7,-23.12 31.58,-40.77 43.95,-61.64 11.91,4.41 41.74,27.58 49.26,40.21 16.35,27.43 -9.23,80.61 -63.87,46.09l-29.34 -24.65zm-209.25 150.4c12.7,10.85 44.5,36.6 60.63,43.11 14.79,-12.6 36.6,-46.75 49.85,-64.42 12.37,-16.5 35.42,-51.53 51.5,-65.47 9.15,14.2 -22.05,158.17 -24.55,190.07 13.62,12.52 50.37,39.73 66.45,48.19l31.11 -193.87c44.45,-0.24 61.55,14.86 100.88,-17.79 71.43,-59.3 62.72,-130.96 -8.96,-193.42 -13.96,-12.15 -26.3,-19.62 -42.79,-32.21 -13.76,-10.51 -31.98,-26.7 -48.62,-33.41 -13.31,30.35 -220.04,286.91 -235.5,319.23z"/>
   <path fill="#DEDB24" d="M1507.36 1665.71l132.3 52c-8.87,14.19 -19.61,26.3 -31.86,38.89 -7.67,7.9 -33.1,32.41 -38.02,35.93l-62.42 -126.83zm-103.87 -47.97l182.6 383.73 16.5 -12.17c5.69,-5.89 6.84,-8.2 12.15,-14.32 9.23,-10.64 19.08,-18.7 25.14,-31.73l-35.08 -74.72c12.42,-23.14 85.79,-91.83 110.4,-118.28l83.63 32.04 50.41 -59.36 -388.4 -157.01c-24.16,8.56 -42.28,35.75 -57.35,51.83z"/>
   <path fill="#DEDB24" d="M6260.28 1837.49l49.42 55.56 129.51 -112.24 -49.11 207.46c20.06,19.7 45.98,52.65 61.78,62.5 4.29,-28.54 56.62,-244.64 65.17,-258.54l220.37 -13.27c-7.9,-14.95 -22.33,-25.84 -32.86,-39.66 -13.42,-17.62 -15.94,-28.85 -49.46,-27.67 -48.35,1.69 -97.46,8.79 -145.65,7.73l70.66 -66.68c10.22,-8.34 17.2,-12.2 25.7,-21.41 -11.81,-22.97 -25.08,-26.67 -47,-58.18 -4.88,2.13 -278.15,237.98 -298.52,264.4z"/>
   <path fill="#057E7F" d="M4476.92 3104.61c42.27,-42.64 155.62,-374.91 195.32,-460.36 37.68,-81.09 128.65,-238.76 182.52,-311.11 14.15,-19.01 62.93,-81.39 68.57,-99.29 -46.96,9.05 -152.91,103.64 -186.05,144.94 -133.64,166.59 -160.99,242.2 -200.37,460.4 -8.59,47.61 -15.85,93.77 -28.58,139.01 -6,21.32 -38.09,110.46 -31.4,126.4z"/>
   <path fill="#DEDB24" d="M2010.73 1183.71c22.67,-15.38 74.64,-52.1 95.23,-9.83 18.26,37.47 -29.58,63.4 -50.62,75.9 -11.9,-16.15 -37.82,-47.41 -44.61,-66.07zm-105.82 -16l223.39 326.64c13.62,-5.64 54.66,-32.22 64.18,-44.63l-92.12 -136.6c12.63,-13.26 30.66,-24.08 44.8,-37.03 99.79,-91.28 -2.13,-253.74 -136.06,-180.24 -19.56,10.74 -93.34,59.57 -104.19,71.86z"/>
   <path fill="#057E7F" d="M5337.89 835.88c-174.81,39.82 -118.85,300.4 49.68,262.93 168.9,-37.54 119.69,-301.52 -49.68,-262.93z"/>
   <path fill="#DEDB24" d="M6769.45 2313.34l-64.78 -33.67c-121.79,175.67 156.22,330.23 207.87,115.23 6.61,-27.51 9.98,-54.39 15.31,-81.8 6.41,-33 5.7,-56.31 31.03,-71.28 51.41,2.71 36.44,52.99 29.45,89.19 18.14,11.92 47.4,19.82 72.19,24.24 6.3,-33.53 17.63,-58.12 9.58,-96.13 -6.55,-30.87 -25.67,-58.53 -43.52,-70.74 -62.24,-42.57 -122.95,-20.06 -151.7,32.15 -28.14,51.1 -23.44,135.47 -45.42,179.24 -16.81,33.49 -53.12,27.78 -69.56,2.29 -22.32,-34.65 0.66,-60.86 9.53,-88.72z"/>
   <path fill="#DEDB24" d="M2599.01 850.44c82.75,-67.99 154.54,42.62 28.85,70.52l-28.85 -70.52zm-101.99 -38.87l157.68 364.4 69.67 -28.87 -64.86 -154.4c45.64,-28.58 73.38,-26.79 98.99,-72.72 33.94,-60.89 -7.33,-201.31 -142.16,-159.85 -26.8,8.24 -101.7,39.44 -119.33,51.44z"/>
   <path fill="#057E7F" d="M5544.41 4354.42c-35.85,35.54 -49.24,87.19 -142.48,125.5 -21.12,8.67 -53.76,11.71 -64.07,28.13 26.67,16.8 162.8,43.81 206.55,43.81 96.92,0 200.5,-72.7 200.5,-163.02 0,-73.82 -45.65,-111.46 -98.81,-150.11 -103.83,-75.5 -63.95,37.3 -28.57,81.43 18.27,22.78 38.7,34.7 62.24,52.35 8.98,6.72 27.52,18.26 31.74,25.84 24.81,44.57 -57.64,62.74 -133.65,-16.51 -9.32,-9.71 -19.65,-22.91 -33.45,-27.41z"/>
   <path fill="#DEDB24" d="M3301.52 687.37l-96.35 -119.53c-25.04,2.48 -61.68,7.47 -80.62,18.22l124.02 154.28c29.11,35.69 33.01,37.5 44.99,95.81 4.62,22.48 18.42,100.32 25.59,113.9l73.65 -14.22c-10.53,-100.02 -45.46,-129.84 -22.96,-210.91 12.32,-44.34 52.47,-166.85 54.55,-203.62 -94.32,16.97 -76.64,11.88 -88.77,54.76l-34.1 111.31z"/>
   <path fill="#057E7F" d="M4572.24 4356.59c28.03,24.16 270.3,64.42 469.26,204.69 114.95,81.05 239.22,194.1 326.48,303.45 11,13.79 7.16,15.38 23,23.38 -14.36,-41.96 -110.34,-164.44 -146.34,-204 -126.55,-139.02 -211.5,-221.71 -399.34,-296.76 -46.32,-18.51 -154.54,-59.16 -206.19,-48.67 -16,3.25 -55.37,8.15 -66.87,17.92z"/>
   <path fill="#DEDB24" d="M2072.12 6592.81c20.27,8.06 49.89,36.61 59.49,58.85 28.57,66.21 -59.71,198.78 -169.21,94.62l109.72 -153.47zm-191.23 168.74c24.05,9.48 57.73,40.57 83.77,56.82 133.76,83.49 230.85,-47.88 230.85,-142.59 0,-74.2 -74.73,-123.06 -136.62,-161.9 -13.31,11.15 -170.29,228.04 -178,247.66z"/>
   <path fill="#DEDB24" d="M6703.89 6190.2c13.2,-12.62 25.83,-30.36 35.41,-47.59 -9.48,-20.52 -24.56,-35.75 -32,-57.29 17.53,-31.82 55.56,-66.95 69.77,-97.21l67.41 17.84c8.96,-15.25 23.73,-31.93 33.37,-46.98 -34.06,-15.35 -110.99,-33.22 -153.34,-44.76 -51.13,-13.92 -107.04,-32.69 -157.53,-43.36 -50.37,57.14 -39.22,35.89 34.83,157.35 33.2,54.45 69.36,107.64 102.08,162z"/>
   <path fill="#DEDB24" d="M1141.76 5978.1c7.47,18.88 20.11,32.67 32.88,48.5 15.26,-7.18 38.09,-26.15 52.72,-36.95 15.43,-11.4 41.66,-33.37 56.57,-40.04l57.28 78.42 -48.7 39.95c-15.39,11.52 -38.62,30.64 -54.96,37.62 7.38,20.92 22.31,32.41 32.29,49.66 21.58,-8.5 96.21,-69.91 122.35,-88.89l120.46 -91.21 -13.32 -22.19c-7.12,-9.55 -9.73,-13.02 -17.68,-21.88 -14.31,3.79 -73.6,50.55 -92.53,63.29l-60.51 -77.09c19.72,-22.18 64.76,-50.41 89.62,-70.76 -8.65,-15.14 -20.69,-31.53 -33.53,-44.69l-121.19 87.41c-21.91,16.16 -38.07,28.25 -60.69,45.09 -18.96,14.11 -42.02,34.66 -61.06,43.77z"/>
   <path fill="#DEDB24" d="M4635.21 7211.91l-20.98 -97.37 -56.85 10.55 59.84 293.61c18.43,3.24 37.34,-4.53 56.76,-7.01l-25.08 -129.37c17.29,8.42 15.91,11.62 29.14,26.31 9.16,10.18 19.12,17.84 29.8,27.47 15.1,13.6 45.68,36.69 54.88,54.73l67.21 -12.63c-17.06,-28.04 -113.85,-106.06 -142.39,-142.79l74.34 -150.38c-71.05,5.6 -68.99,13.15 -83.22,42.36 -13.02,26.72 -29.23,62.35 -43.45,84.53z"/>
   <path fill="#DEDB24" d="M5993.58 6757.77c5.27,60.22 -39.64,51.19 -81.07,39.65l-20.04 51.03c45.59,27.13 70.38,13.12 90.87,10.59 25.57,-3.16 0.79,2.29 19.82,3.52 15.23,0.99 6.95,-6.44 27.12,-3.13 3.67,30.49 -16.25,26.57 -34.23,41.1l6.39 23.4c75.57,-12.16 100.69,-94.26 27.3,-93.63 11.09,-22.47 27.47,-35.81 20.8,-74.37 -4.43,-25.64 -25.4,-50.03 -42.17,-59.36 -46.07,-25.6 -126.01,-5.37 -162.55,-35.48 -4.21,-39.61 33.92,-37.6 67.28,-31.73l11.8 -54.87c-46.33,-7.51 -76.27,-10.43 -107.2,17.66 -23.05,20.95 -41.66,61.57 -19.71,99 37.2,63.45 142.79,26.42 195.61,66.6z"/>
   <polygon fill="#DEDB24" points="3256.37,7396.64 3419.31,7427.79 3429.42,7372.01 3325.63,7352.15 3338.02,7275.68 3445.18,7293.51 3455.36,7240.18 3350.95,7218.93 3359.58,7166.01 3466.73,7185.83 3476.5,7129.44 3314.53,7098.9 "/>
   <path fill="#DEDB24" d="M1507.49 6426.37c30.29,24.43 84.62,82.29 115.45,111.66 8.01,-5.83 34.08,-32.82 39.69,-43.52 -21.74,-15.21 -51.86,-50.19 -74.63,-69.63l51.85 -57.48c33.53,17.89 47.78,60.75 85.91,72.18 10.28,-15.34 19.64,-18.35 31.34,-37.01 -17.53,-21.66 -62.89,-60.97 -73.9,-81.04 11.3,-8.24 26.21,-21.97 36.42,-32.35 25.62,16.46 53.73,54.81 79.02,72.58l37.81 -37.41c-8.37,-15.15 -13.24,-15.48 -29.22,-31.43 -10.64,-10.62 -18.02,-18.01 -28.62,-28.68 -17.38,-17.48 -40.74,-40.49 -59,-55.57 -17.11,9.16 -85.06,86.04 -105.1,106.44 -17.66,17.99 -34.34,35.91 -53.2,52.55 -20.42,18.04 -45.8,35.69 -53.81,58.7z"/>
   <path fill="#057E7F" d="M5882.65 4543.64c-39.85,42.61 -57.12,-9.01 -87.07,-18.72 -29.63,15.14 -29.9,35.7 -81.3,69.05 -43.34,28.12 -67.41,26.15 -107.34,45.52 16.08,25.17 92.71,26.93 126.94,26.93 97.88,0 220.76,-62.01 239.65,-126.18 14.38,-48.86 -57.25,-102.71 -68.44,-107.11 -34.67,-13.63 -47.04,4.93 -45.17,39.46 1.83,33.8 23.69,37.14 22.73,71.05z"/>
   <path fill="#DEDB24" d="M5376.97 6860.84l135.67 269c24.49,-8.14 131.86,-60 146.5,-75.09l-22.64 -47.82 -96.19 46.54 -36.41 -68.49 93.62 -49.28 -23 -48.92 -95.53 47.2 -25.42 -46.19 9.67 -6.47c0.8,-0.49 2.04,-1.25 2.93,-1.77 22.91,-13.45 68.98,-31.35 80.77,-45.13l-22.65 -46.49 -147.32 72.91z"/>
   <path fill="#057E7F" d="M2762.88 2238.48c0,53.88 15.47,116.17 33.5,161.42 9.89,24.84 18.55,44.78 30.19,66.92 9.56,18.18 24.26,49.97 40.31,58.03 71.03,-114.96 -37.41,-381.93 -62.77,-404.25 -17.54,5.92 -17.63,14.27 -29.1,49.64 -6.97,21.5 -12.13,43.88 -12.13,68.23z"/>
   <path fill="#057E7F" d="M5795.89 4758.98c35.81,29.41 173.97,13.47 239.11,-25 45.06,-26.61 154.29,-91.84 158.08,-138.04 -11.3,-15.81 -82.14,-56.61 -114.7,-48.21 -23.09,5.96 -11.71,50.04 -62.93,100.61 -92.58,91.38 -196.47,93.76 -219.56,110.64z"/>
   <path fill="#DEDB24" d="M6245.46 6243.96l33.48 114.61 -118.95 -37.5c-9.62,17.68 -25.99,30.68 -38.34,41.85 17.83,14.23 125.79,45.84 159.23,56.79 32.32,10.59 40.61,27.54 58.41,47.3 16.84,18.68 38.44,34.28 54.42,52.52 12.2,-8.46 30.81,-25.24 39.95,-36.76 -28.16,-51.23 -81.01,-66.82 -95.73,-115.97 -14.42,-48.15 -39.52,-117.84 -47.94,-164.27 -11.64,6.42 -0.83,-1.18 -11.58,8.55l-32.95 32.86z"/>
   <path fill="#DEDB24" d="M2794.77 7262.15l52.55 17.61c11.21,-18.18 22.65,-58.1 30.6,-80.22 23.76,-66.17 49.59,-71.84 100.32,-120.04l54.5 -55.62 -52.83 -18.68c-33.77,21.49 -72.7,69.27 -92.58,80.96l-15.9 -117.46c-14.08,-8.57 -38.31,-16.85 -57.83,-21.18 5.03,57.98 15.6,113.7 22.55,171.84 4.53,37.93 -31.76,104.11 -41.37,142.79z"/>
   <path fill="#057E7F" d="M3074.32 2214.5c22.78,1.17 80.92,-23.82 100.5,-67.53 44.62,-99.62 32.72,-142.53 25.79,-244.88 -28.68,9.95 -81.13,83.08 -99.29,122.94 -13.04,28.64 -36.11,156.41 -27,189.47z"/>
   <polygon fill="#DEDB24" points="3750.56,7466.52 3891.98,7473.93 3894.18,7420.53 3812.71,7414.49 3823.91,7166.16 3766.57,7164.46 "/>
   <path fill="#057E7F" d="M1962.4 6746.29c109.5,104.16 197.78,-28.41 169.21,-94.62 -9.6,-22.24 -39.22,-50.8 -59.49,-58.85l-109.72 153.47z"/>
   <path fill="#DEDB24" d="M2365.88 7067.96c13.85,12.93 31.47,20.05 50.54,26.74l139.99 -269.83 -51 -24 -139.52 267.1z"/>
   <polygon fill="#DEDB24" points="4192.85,7168.71 4213.17,7470.95 4268.95,7467.29 4249.69,7164.92 "/>
   <path fill="#057E7F" d="M1507.36 1665.71l62.42 126.83c4.93,-3.52 30.36,-28.03 38.02,-35.93 12.24,-12.59 22.99,-24.7 31.86,-38.89l-132.3 -52z"/>
   <path fill="#057E7F" d="M2599.01 850.44l28.85 70.52c125.68,-27.9 53.89,-138.51 -28.85,-70.52z"/>
   <path fill="#057E7F" d="M5997.07 1282.27l29.34 24.65c54.64,34.52 80.22,-18.65 63.87,-46.09 -7.52,-12.63 -37.35,-35.79 -49.26,-40.21 -12.37,20.88 -31.25,38.53 -43.95,61.64z"/>
   <path fill="#057E7F" d="M2010.73 1183.71c6.79,18.65 32.71,49.92 44.61,66.07 21.03,-12.5 68.87,-38.43 50.62,-75.9 -20.59,-42.27 -72.56,-5.55 -95.23,9.83z"/>
  </g>
 </g>
</svg>
