<?xml version="1.0"?>
<svg xmlns="http://www.w3.org/2000/svg" version="1" viewBox="0 0 24 24" enable-background="new 0 0 24 24">
    <path d="M 4 2 C 2.9 2 2 2.9 2 4 L 2 10 L 6 10 L 6 12 L 8 12 L 8 10 L 10 10 L 10 2 L 4 2 z M 10 10 L 10 12 L 8 12 L 8 14 L 6 14 L 6 12 L 4 12 L 4 14 L 2 14 L 2 20 C 2 21.1 2.9 22 4 22 L 10 22 L 12 22 L 12 20 L 10 20 L 10 18 L 12 18 L 12 20 L 14 20 L 14 18 L 16 18 L 16 16 L 20 16 L 20 14 L 22 14 L 22 12 L 20 12 L 18 12 L 18 14 L 16 14 L 16 12 L 15 12 L 14 12 L 14 10 L 12 10 L 10 10 z M 14 10 L 16 10 L 16 12 L 18 12 L 18 10 L 22 10 L 22 4 C 22 2.9 21.1 2 20 2 L 14 2 L 14 10 z M 20 16 L 20 18 L 22 18 L 22 16 L 20 16 z M 20 18 L 18 18 L 18 20 L 20 20 L 20 18 z M 20 20 L 20 22 C 21.1 22 22 21.1 22 20 L 20 20 z M 18 20 L 16 20 L 16 22 L 18 22 L 18 20 z M 4 4 L 8 4 L 8 8 L 4 8 L 4 4 z M 16 4 L 20 4 L 20 8 L 16 8 L 16 4 z M 5 5 L 5 7 L 7 7 L 7 5 L 5 5 z M 17 5 L 17 7 L 19 7 L 19 5 L 17 5 z M 10 14 L 12 14 L 12 16 L 10 16 L 10 14 z M 4 16 L 8 16 L 8 20 L 4 20 L 4 16 z M 5 17 L 5 19 L 7 19 L 7 17 L 5 17 z"/>
</svg>
